<svg width="60" height="60" viewBox="0 0 60 60" fill="none" xmlns="http://www.w3.org/2000/svg">
<rect x="0.5" y="0.5" width="59" height="59" rx="29.5" stroke="url(#paint0_linear_1_28)"/>
<path d="M30 25.9225C27.7425 25.9225 25.9225 27.76 25.9225 30C25.9225 32.24 27.76 34.0775 30 34.0775C32.24 34.0775 34.0775 32.24 34.0775 30C34.0775 27.76 32.24 25.9225 30 25.9225ZM42.25 30C42.25 28.3025 42.25 26.64 42.1625 24.9425C42.075 22.9825 41.62 21.2325 40.185 19.815C38.75 18.38 37.0175 17.925 35.0575 17.8375C33.36 17.75 31.6975 17.75 30 17.75C28.3025 17.75 26.64 17.75 24.9425 17.8375C22.9825 17.925 21.2325 18.38 19.815 19.815C18.38 21.25 17.925 22.9825 17.8375 24.9425C17.75 26.64 17.75 28.3025 17.75 30C17.75 31.6975 17.75 33.36 17.8375 35.0575C17.925 37.0175 18.38 38.7675 19.815 40.185C21.25 41.62 22.9825 42.075 24.9425 42.1625C26.64 42.25 28.3025 42.25 30 42.25C31.6975 42.25 33.36 42.25 35.0575 42.1625C37.0175 42.075 38.7675 41.62 40.185 40.185C41.62 38.75 42.075 37.0175 42.1625 35.0575C42.2675 33.3775 42.25 31.6975 42.25 30ZM30 36.2825C26.5175 36.2825 23.7175 33.4825 23.7175 30C23.7175 26.5175 26.5175 23.7175 30 23.7175C33.4825 23.7175 36.2825 26.5175 36.2825 30C36.2825 33.4825 33.4825 36.2825 30 36.2825ZM36.545 24.925C35.74 24.925 35.075 24.2775 35.075 23.455C35.075 22.6325 35.7225 21.985 36.545 21.985C37.3675 21.985 38.015 22.6325 38.015 23.455C38.0194 23.6467 37.9844 23.8372 37.9122 24.0149C37.8399 24.1925 37.732 24.3533 37.595 24.4875C37.4608 24.6245 37.3 24.7324 37.1224 24.8047C36.9447 24.8769 36.7542 24.9119 36.5625 24.9075L36.545 24.925Z" fill="url(#paint1_linear_1_28)"/>
<defs>
<linearGradient id="paint0_linear_1_28" x1="30" y1="0" x2="30" y2="60" gradientUnits="userSpaceOnUse">
<stop stop-color="#F0C83B"/>
<stop offset="1" stop-color="#E65352"/>
</linearGradient>
<linearGradient id="paint1_linear_1_28" x1="30.0005" y1="17.75" x2="30.0005" y2="42.25" gradientUnits="userSpaceOnUse">
<stop stop-color="#F0C83C"/>
<stop offset="1" stop-color="#E65552"/>
</linearGradient>
</defs>
</svg>
