<svg width="60" height="60" viewBox="0 0 60 60" fill="none" xmlns="http://www.w3.org/2000/svg">
<rect x="0.5" y="0.5" width="59" height="59" rx="29.5" stroke="url(#paint0_linear_1_31)"/>
<path d="M43.4143 23.217C43.2557 22.6213 42.9436 22.0777 42.5092 21.6404C42.0748 21.2032 41.5332 20.8875 40.9387 20.725C38.7558 20.1358 30 20.1358 30 20.1358C30 20.1358 21.2442 20.1358 19.0602 20.725C18.4658 20.8877 17.9245 21.2034 17.4903 21.6407C17.0561 22.078 16.7442 22.6215 16.5857 23.217C16 25.415 16 30 16 30C16 30 16 34.585 16.5857 36.783C16.7443 37.3786 17.0564 37.9222 17.4908 38.3595C17.9252 38.7968 18.4668 39.1124 19.0613 39.275C21.2442 39.8641 30 39.8641 30 39.8641C30 39.8641 38.7558 39.8641 40.9398 39.275C41.5344 39.1124 42.0759 38.7968 42.5104 38.3595C42.9448 37.9222 43.2569 37.3786 43.4155 36.783C44 34.585 44 30 44 30C44 30 44 25.415 43.4143 23.217ZM27.1358 34.1626V25.8373L34.4543 30L27.1358 34.1626Z" fill="url(#paint1_linear_1_31)"/>
<defs>
<linearGradient id="paint0_linear_1_31" x1="30" y1="0" x2="30" y2="60" gradientUnits="userSpaceOnUse">
<stop stop-color="#F0C83B"/>
<stop offset="1" stop-color="#E65352"/>
</linearGradient>
<linearGradient id="paint1_linear_1_31" x1="30" y1="20.1358" x2="30" y2="39.8641" gradientUnits="userSpaceOnUse">
<stop stop-color="#F0C83C"/>
<stop offset="1" stop-color="#E65552"/>
</linearGradient>
</defs>
</svg>
